<svg width="34" height="34" viewBox="0 0 34 34" fill="none" xmlns="http://www.w3.org/2000/svg">
<path fill-rule="evenodd" clip-rule="evenodd" d="M17.5 7.37506C15.7315 7.37506 14.0899 7.89616 12.7129 8.79391C12.488 8.939 12.2149 8.98918 11.9532 8.93348C11.6914 8.87778 11.4624 8.72073 11.3161 8.49666C11.1698 8.27259 11.1182 7.99972 11.1725 7.73769C11.2268 7.47567 11.3826 7.24579 11.6059 7.09831C13.2358 6.03675 15.1222 5.43509 17.0657 5.35688C19.0093 5.27867 20.9379 5.72681 22.6479 6.65396C24.3578 7.58112 25.7856 8.95287 26.7805 10.6243C27.7754 12.2958 28.3003 14.2049 28.3 16.1501C28.3037 19.5272 27.7434 22.8813 26.6422 26.0739C26.6018 26.2032 26.5358 26.3231 26.4481 26.4265C26.3605 26.5299 26.253 26.6146 26.132 26.6757C26.0111 26.7367 25.8791 26.7729 25.7439 26.782C25.6087 26.7911 25.473 26.773 25.3449 26.7287C25.2169 26.6844 25.099 26.6148 24.9983 26.5242C24.8976 26.4335 24.8161 26.3235 24.7587 26.2008C24.7013 26.078 24.6691 25.945 24.664 25.8096C24.659 25.6742 24.6811 25.5391 24.7292 25.4124C25.7565 22.4325 26.279 19.302 26.275 16.1501C26.275 14.9977 26.048 13.8566 25.607 12.792C25.1661 11.7274 24.5197 10.76 23.7049 9.9452C22.89 9.13036 21.9227 8.484 20.858 8.04301C19.7934 7.60203 18.6523 7.37506 17.5 7.37506ZM9.84955 9.96166C10.0744 10.1085 10.2317 10.3386 10.2869 10.6014C10.3421 10.8642 10.2906 11.1381 10.1438 11.363C9.21489 12.7865 8.72176 14.4502 8.725 16.1501C8.72797 18.2409 8.12138 20.2873 6.97945 22.0388C6.83283 22.2638 6.60282 22.4214 6.34003 22.4768C6.07723 22.5322 5.80318 22.481 5.57815 22.3344C5.35312 22.1878 5.19555 21.9578 5.1401 21.695C5.08466 21.4322 5.13588 21.1581 5.2825 20.9331C6.21022 19.5106 6.70284 17.8484 6.7 16.1501C6.7 13.9766 7.3426 11.9516 8.44825 10.2573C8.52083 10.1459 8.61465 10.0498 8.72436 9.97464C8.83408 9.89947 8.95752 9.84664 9.08765 9.81919C9.21778 9.79173 9.35204 9.79019 9.48277 9.81463C9.6135 9.83908 9.73813 9.88904 9.84955 9.96166ZM17.5 12.2621C16.9633 12.2618 16.432 12.3683 15.9368 12.5752C15.4417 12.7821 14.9925 13.0853 14.6156 13.4673C14.2386 13.8493 13.9414 14.3024 13.741 14.8002C13.5407 15.2981 13.4413 15.8308 13.4486 16.3674C13.4035 19.9487 12.1166 23.4033 9.8077 26.1414C9.63317 26.3409 9.38735 26.464 9.12305 26.4843C8.85874 26.5046 8.59703 26.4204 8.39411 26.2498C8.1912 26.0793 8.06327 25.8359 8.0378 25.5721C8.01233 25.3082 8.09135 25.0449 8.2579 24.8387C10.308 22.4082 11.4301 19.3297 11.425 16.1501C11.425 16.1123 11.4277 16.0758 11.4304 16.0394C11.4899 14.4591 12.1633 12.9643 13.3075 11.8726C14.4517 10.781 15.9765 10.1785 17.5578 10.1933C19.1392 10.2081 20.6524 10.8389 21.776 11.9517C22.8996 13.0645 23.545 14.5716 23.575 16.1528V16.3526L23.5682 16.7535C23.5622 17.022 23.4496 17.2772 23.2555 17.4627C23.0613 17.6483 22.8013 17.7491 22.5328 17.7431C22.2643 17.737 22.0091 17.6245 21.8236 17.4303C21.638 17.2361 21.5372 16.9761 21.5432 16.7076C21.5473 16.5591 21.5486 16.412 21.55 16.2648C21.5376 15.1989 21.1054 14.1809 20.3472 13.4315C19.589 12.6822 18.566 12.262 17.5 12.2621ZM17.5 15.1376C17.7685 15.1376 18.0261 15.2442 18.2159 15.4341C18.4058 15.624 18.5125 15.8815 18.5125 16.1501C18.5125 20.8886 16.91 25.2558 14.2181 28.7361C14.1377 28.8438 14.0366 28.9345 13.9208 29.0027C13.805 29.071 13.6767 29.1155 13.5435 29.1336C13.4103 29.1518 13.2748 29.1432 13.1449 29.1084C13.015 29.0736 12.8934 29.0133 12.7871 28.931C12.6808 28.8488 12.5919 28.7461 12.5257 28.6291C12.4595 28.5121 12.4172 28.3831 12.4014 28.2496C12.3855 28.1161 12.3965 27.9807 12.4335 27.8515C12.4705 27.7223 12.5329 27.6017 12.617 27.4968C15.1325 24.2499 16.4943 20.2574 16.4875 16.1501C16.4875 15.8815 16.5942 15.624 16.7841 15.4341C16.9739 15.2442 17.2315 15.1376 17.5 15.1376ZM22.2641 20.1299C22.5271 20.1838 22.7578 20.34 22.9057 20.564C23.0535 20.7881 23.1063 21.0616 23.0525 21.3246C22.4827 24.1039 21.4529 26.7685 20.0056 29.2086C19.9402 29.3274 19.8515 29.4319 19.745 29.5158C19.6384 29.5996 19.516 29.6613 19.3852 29.697C19.2544 29.7327 19.1177 29.7417 18.9833 29.7236C18.8488 29.7054 18.7194 29.6605 18.6027 29.5914C18.486 29.5222 18.3844 29.4304 18.3039 29.3212C18.2234 29.2121 18.1656 29.0879 18.134 28.956C18.1025 28.8241 18.0977 28.6872 18.12 28.5534C18.1424 28.4196 18.1914 28.2917 18.2641 28.1772C19.5966 25.9305 20.5447 23.4772 21.0694 20.9183C21.1234 20.6553 21.2795 20.4246 21.5036 20.2767C21.7276 20.1289 22.0012 20.0761 22.2641 20.1299Z" fill="#9B592C"/>
<path d="M33 9V5C33 2.79086 31.2091 1 29 1H25" stroke="#9B592C"/>
<path d="M1 25V29C1 31.2091 2.79086 33 5 33H9" stroke="#9B592C"/>
<path d="M25 33H29C31.2091 33 33 31.2091 33 29V25" stroke="#9B592C"/>
<path d="M9 1H5C2.79086 1 1 2.79086 1 5L1 9" stroke="#9B592C"/>
</svg>
